<svg xmlns="http://www.w3.org/2000/svg" enable-background="new 0 0 24 24" viewBox="0 0 24 24"><path fill="none" stroke="#303c42" stroke-linecap="round" stroke-linejoin="round" d="M3.5 8.5L3.5 8.5c.6 0 1 .4 1 1v6c0 .6-.4 1-1 1l0 0c-.6 0-1-.4-1-1v-6C2.5 8.9 2.9 8.5 3.5 8.5zM20.5 8.5L20.5 8.5c.6 0 1 .4 1 1v6c0 .6-.4 1-1 1l0 0c-.6 0-1-.4-1-1v-6C19.5 8.9 19.9 8.5 20.5 8.5zM12 1.5c-2.8 0-5.2 2.2-5.5 5h10.9C17.2 3.7 14.8 1.5 12 1.5zM6.5 8.5V17c0 .8.7 1.5 1.5 1.5h.5v4c0 .6.4 1 1 1s1-.4 1-1v-4h3v4c0 .6.4 1 1 1s1-.4 1-1v-4H16c.8 0 1.5-.7 1.5-1.5V8.5H6.5z"/><line x1="8" x2="9.1" y1=".5" y2="2.3" fill="none" stroke="#303c42" stroke-linecap="round" stroke-linejoin="round"/><line x1="16" x2="14.9" y1=".5" y2="2.3" fill="none" stroke="#303c42" stroke-linecap="round" stroke-linejoin="round"/><circle cx="9.5" cy="4.5" r=".5" fill="#303c42"/><circle cx="14.5" cy="4.5" r=".5" fill="#303c42"/></svg>