<svg xmlns="http://www.w3.org/2000/svg" enable-background="new 0 0 24 24" viewBox="0 0 24 24"><path d="M12.578,6.006c-0.056,0-0.091-0.001-0.102-0.001c-0.262-0.009-0.472-0.22-0.481-0.481c-0.004-0.104-0.074-2.557,1.443-4.073c1.515-1.516,3.968-1.449,4.072-1.443c0.262,0.009,0.472,0.22,0.481,0.481c0.004,0.104,0.074,2.556-1.443,4.072C15.188,5.924,13.07,6.006,12.578,6.006z M16.974,1.027c-0.702,0.06-1.985,0.287-2.828,1.13l0,0c-0.843,0.842-1.07,2.125-1.13,2.827c0.703-0.06,1.985-0.288,2.827-1.13C16.69,3.007,16.915,1.728,16.974,1.027z M13.792,1.804h0.01H13.792z"/><path d="M16.5,24c-1.271,0-2.162-0.369-2.877-0.666C13.171,23.147,12.815,23,12.5,23s-0.671,0.147-1.123,0.334C10.662,23.631,9.771,24,8.5,24C6.268,24,2,19.911,2,13.5c0-0.997,0.175-1.967,0.519-2.882l0,0C3.542,7.899,6.002,6,8.5,6c1.118,0,1.706,0.293,2.224,0.553C11.204,6.793,11.618,7,12.5,7s1.296-0.207,1.776-0.447C14.794,6.293,15.382,6,16.5,6c1.816,0,3.662,0.989,4.936,2.645c0.092,0.12,0.125,0.275,0.09,0.421c-0.035,0.147-0.135,0.27-0.271,0.335C19.864,10.064,19,11.443,19,13c0,1.873,1.271,3.474,3.092,3.893c0.136,0.031,0.253,0.118,0.322,0.24s0.084,0.267,0.042,0.4C21.218,21.401,18.376,24,16.5,24z M12.5,22c0.514,0,0.995,0.2,1.505,0.411C14.672,22.687,15.428,23,16.5,23c1.257,0,3.627-1.998,4.836-5.286C19.347,17.022,18,15.155,18,13c0-1.729,0.854-3.284,2.268-4.191C19.215,7.667,17.841,7,16.5,7c-0.882,0-1.296,0.207-1.776,0.447C14.206,7.707,13.618,8,12.5,8s-1.706-0.293-2.224-0.553C9.796,7.207,9.382,7,8.5,7c-2.09,0-4.165,1.633-5.045,3.97C3.153,11.772,3,12.624,3,13.5C3,19.313,6.867,23,8.5,23c1.072,0,1.828-0.313,2.495-0.589C11.505,22.2,11.986,22,12.5,22z"/></svg>